<svg width="76" height="76" viewBox="0 0 76 76" fill="none" xmlns="http://www.w3.org/2000/svg">
<path d="M46.9062 57.8906V60.8594H52.8438V57.8906C52.8438 57.0712 52.5113 56.3291 51.9739 55.7917C51.4366 55.2544 50.6944 54.9219 49.875 54.9219C48.2348 54.9219 46.9062 56.2504 46.9062 57.8906Z" fill="#C5BEE3"/>
<path d="M67.6875 31.1719C67.6875 21.3349 59.7119 13.3594 49.875 13.3594C47.5579 13.3594 45.3447 13.8017 43.314 14.6063H43.3126C43.7208 16.101 43.9375 17.673 43.9375 19.2969C43.9375 27.0379 38.8921 34.7774 33.7339 39.2291V39.2305C37.2162 47.8859 45.3046 54.9219 49.875 54.9219C55.8125 54.9219 67.6875 43.0469 67.6875 31.1719Z" fill="#C5BEE3"/>
<path d="M23.1562 46.0156V48.9844H29.0938V46.0156C29.0938 45.1962 28.7613 44.4541 28.2239 43.9167C27.6866 43.3794 26.9444 43.0469 26.125 43.0469C24.4848 43.0469 23.1562 44.3754 23.1562 46.0156Z" fill="#ADC48C"/>
<path d="M43.3126 14.6062C41.2552 7.04484 34.338 1.48438 26.125 1.48438C16.288 1.48438 8.3125 9.45992 8.3125 19.2969C8.3125 31.1719 20.1875 43.0469 26.125 43.0469C28.1927 43.0469 30.9789 41.607 33.7339 39.2291C38.8921 34.7774 43.9375 27.0379 43.9375 19.2969C43.9375 17.673 43.7208 16.101 43.3126 14.6062Z" fill="#ADC48C"/>
<path d="M36.0064 17.5705L31.5028 22.5284L32.2331 29.1873L26.1249 26.4352L20.0167 29.1873L20.747 22.5284L16.2434 17.5705L22.8014 16.2064L26.1249 10.3906L29.4484 16.2064L36.0064 17.5705Z" fill="white"/>
<path d="M31.6234 30.5406C31.8183 30.6284 32.0261 30.6716 32.2331 30.6716C32.5415 30.6716 32.8479 30.5756 33.1057 30.3881C33.5366 30.0751 33.7667 29.5549 33.7087 29.0255L33.0513 23.0314L37.1051 18.5686C37.4633 18.1744 37.5826 17.6185 37.4181 17.1119C37.2535 16.6053 36.8302 16.2259 36.3087 16.1173L30.4055 14.8893L27.4138 9.65408C27.1495 9.1917 26.6576 8.90625 26.125 8.90625C25.5924 8.90625 25.1005 9.1917 24.8363 9.65408L21.8445 14.8893L15.9413 16.1173C15.4199 16.2259 14.9965 16.6054 14.8319 17.1119C14.6674 17.6185 14.7868 18.1744 15.1449 18.5686L19.1988 23.0314L18.5413 29.0255C18.4833 29.5549 18.7134 30.0751 19.1443 30.3881C19.5754 30.7013 20.1409 30.7594 20.6266 30.5407L26.125 28.0633L31.6234 30.5406ZM21.7755 26.7668L22.2226 22.6903C22.2691 22.2676 22.1318 21.8452 21.8457 21.5304L19.0885 18.495L23.1037 17.6598C23.5201 17.5732 23.8792 17.3121 24.0902 16.943L26.125 13.3824L28.1598 16.943C28.3707 17.3121 28.7299 17.5731 29.1463 17.6598L33.1615 18.495L30.4043 21.5304C30.1183 21.8452 29.9811 22.2676 30.0274 22.6903L30.4745 26.7668L26.7348 25.0819C26.5409 24.9946 26.333 24.9509 26.125 24.9509C25.9171 24.9509 25.7091 24.9945 25.5152 25.0819L21.7755 26.7668Z" fill="#4B4B4B"/>
<path d="M69.1719 31.1719C69.1719 20.5316 60.5153 11.875 49.875 11.875C47.9566 11.875 46.0763 12.1544 44.2654 12.7043C41.523 5.15048 34.2773 0 26.125 0C15.4847 0 6.82812 8.65658 6.82812 19.2969C6.82812 29.7804 15.5144 40.4053 22.4004 43.5792C21.9404 44.2798 21.6719 45.1167 21.6719 46.0156V48.9844C21.6719 49.8042 22.3364 50.4688 23.1562 50.4688H24.6406V74.5156C24.6406 75.3354 25.3052 76 26.125 76C26.9448 76 27.6094 75.3354 27.6094 74.5156V50.4688H29.0938C29.9136 50.4688 30.5781 49.8042 30.5781 48.9844V46.0156C30.5781 45.1409 30.3265 44.305 29.8591 43.589C30.9178 43.1019 32.027 42.4315 33.1589 41.592C34.8919 45.1851 37.4077 48.616 40.3809 51.4048C42.3356 53.2383 44.3138 54.6195 46.146 55.4611C45.6888 56.1603 45.4219 56.9947 45.4219 57.8906V60.8594C45.4219 61.6792 46.0864 62.3438 46.9062 62.3438H48.3906V74.5156C48.3906 75.3354 49.0552 76 49.875 76C50.6948 76 51.3594 75.3354 51.3594 74.5156V62.3438H52.8438C53.6636 62.3438 54.3281 61.6792 54.3281 60.8594V57.8906C54.3281 57.0114 54.0742 56.1714 53.6021 55.453C60.4877 52.2778 69.1719 41.6542 69.1719 31.1719ZM16.1325 34.6747C12.1061 29.8431 9.79688 24.2381 9.79688 19.2969C9.79688 10.2935 17.1217 2.96875 26.125 2.96875C33.4747 2.96875 39.9536 7.91454 41.8803 14.9959C41.8805 14.9963 41.8806 14.9968 41.8806 14.9972C42.2606 16.3884 42.4531 17.8349 42.4531 19.2969C42.4531 26.5133 37.5868 33.9432 32.764 38.1054C30.2562 40.2701 27.7741 41.5625 26.125 41.5625C24.0769 41.5625 20.0762 39.407 16.1325 34.6747ZM27.1743 44.9663C27.4549 45.2469 27.6094 45.6196 27.6094 46.0156V47.5H24.6406V46.0156C24.6406 45.1971 25.3065 44.5312 26.125 44.5312C26.521 44.5312 26.8938 44.6858 27.1743 44.9663ZM50.9243 56.8413C51.2049 57.1219 51.3594 57.4946 51.3594 57.8906V59.375H48.3906V57.8906C48.3906 57.0721 49.0565 56.4062 49.875 56.4062C50.271 56.4062 50.6438 56.5608 50.9243 56.8413ZM49.875 53.4375C46.4538 53.4375 39.1304 47.6927 35.5149 39.6245C40.2577 35.2069 45.4219 27.5381 45.4219 19.2969C45.4219 18.0381 45.2993 16.7884 45.0594 15.5656C46.612 15.0867 48.2265 14.8438 49.875 14.8438C58.8783 14.8438 66.2031 22.1685 66.2031 31.1719C66.2031 36.1131 63.8939 41.7181 59.8675 46.5497C55.9238 51.282 51.9231 53.4375 49.875 53.4375Z" fill="#4B4B4B"/>
</svg>
