<svg width="69" height="69" viewBox="0 0 69 69" fill="none" xmlns="http://www.w3.org/2000/svg">
<g clip-path="url(#clip0_57_330)">
<path d="M30.9961 12.1289H39.082V17.5195H30.9961V12.1289Z" fill="#F6C795"/>
<path d="M30.9961 12.1289V17.5195H24.026C21.5854 17.5195 19.2459 16.5506 17.5195 14.8242C18.382 13.9617 19.3995 13.2879 20.5046 12.8297C21.611 12.3715 22.805 12.1289 24.026 12.1289H30.9961Z" fill="#C5BEE3"/>
<path d="M59.5664 12.1289C61.0556 12.1289 62.2617 13.3351 62.2617 14.8242C62.2617 15.5681 61.9598 16.242 61.472 16.7298C60.9841 17.2177 60.3103 17.5195 59.5664 17.5195H39.082V12.1289H59.5664Z" fill="#C5BEE3"/>
<path d="M49.8633 17.5195V64.957C49.8633 66.4462 48.6571 67.6523 47.168 67.6523H4.04297C2.55381 67.6523 1.34766 66.4462 1.34766 64.957V4.04297C1.34766 2.55381 2.55381 1.34766 4.04297 1.34766H47.168C48.6571 1.34766 49.8633 2.55381 49.8633 4.04297V12.1289H44.4727V6.73828H6.73828V51.4805H44.4727V17.5195H49.8633ZM30.9961 59.5664C30.9961 58.0772 28.5824 56.8711 25.6055 56.8711C22.6285 56.8711 20.2148 58.0772 20.2148 59.5664C20.2148 61.0556 22.6285 62.2617 25.6055 62.2617C28.5824 62.2617 30.9961 61.0556 30.9961 59.5664Z" fill="#A6C2D8"/>
<path d="M17.5195 14.8242C19.2459 16.5506 21.5854 17.5195 24.026 17.5195H44.4727V51.4805H6.73828V6.73828H44.4727V12.1289H24.026C22.805 12.1289 21.611 12.3715 20.5046 12.8297C19.3995 13.2879 18.382 13.9617 17.5195 14.8242Z" fill="white"/>
<path d="M25.6055 62.2617C28.5826 62.2617 30.9961 61.055 30.9961 59.5664C30.9961 58.0778 28.5826 56.8711 25.6055 56.8711C22.6283 56.8711 20.2148 58.0778 20.2148 59.5664C20.2148 61.055 22.6283 62.2617 25.6055 62.2617Z" fill="white"/>
<path d="M9.43359 55.5234C8.68928 55.5234 8.08594 56.1268 8.08594 56.8711V62.2617C8.08594 63.006 8.68928 63.6094 9.43359 63.6094C10.1779 63.6094 10.7812 63.006 10.7812 62.2617V56.8711C10.7812 56.1268 10.1779 55.5234 9.43359 55.5234Z" fill="#4B4B4B"/>
<path d="M14.8242 55.5234C14.0799 55.5234 13.4766 56.1268 13.4766 56.8711V62.2617C13.4766 63.006 14.0799 63.6094 14.8242 63.6094C15.5685 63.6094 16.1719 63.006 16.1719 62.2617V56.8711C16.1719 56.1268 15.5685 55.5234 14.8242 55.5234Z" fill="#4B4B4B"/>
<path d="M36.3867 55.5234C35.6424 55.5234 35.0391 56.1268 35.0391 56.8711V62.2617C35.0391 63.006 35.6424 63.6094 36.3867 63.6094C37.131 63.6094 37.7344 63.006 37.7344 62.2617V56.8711C37.7344 56.1268 37.131 55.5234 36.3867 55.5234Z" fill="#4B4B4B"/>
<path d="M41.7773 55.5234C41.0332 55.5234 40.4297 56.1268 40.4297 56.8711V62.2617C40.4297 63.006 41.0332 63.6094 41.7773 63.6094C42.5215 63.6094 43.125 63.006 43.125 62.2617V56.8711C43.125 56.1268 42.5215 55.5234 41.7773 55.5234Z" fill="#4B4B4B"/>
<path d="M67.4207 15.0559C66.4024 14.0375 65.0488 13.4766 63.6094 13.4766H63.3776C62.8213 11.908 61.3233 10.7812 59.5664 10.7812H51.2109V4.04297C51.2109 1.81368 49.3973 0 47.168 0H4.04297C1.81368 0 0 1.81368 0 4.04297V64.957C0 67.1863 1.81368 69 4.04297 69H47.168C49.3973 69 51.2109 67.1863 51.2109 64.957V18.8672H59.5664C60.646 18.8672 61.6611 18.4466 62.4249 17.6827C62.8589 17.2489 63.1816 16.7337 63.3799 16.1719H63.6094C64.3288 16.1719 65.0054 16.4525 65.5148 16.9617C66.0241 17.4711 66.3047 18.1478 66.3047 18.8672C66.3047 20.3534 65.0956 21.5625 63.6094 21.5625H59.5664C57.3371 21.5625 55.5234 23.3762 55.5234 25.6055C55.5234 26.3498 56.1269 26.9531 56.8711 26.9531C57.6153 26.9531 58.2188 26.3498 58.2188 25.6055C58.2188 24.8624 58.8233 24.2578 59.5664 24.2578H63.6094C66.5818 24.2578 69 21.8396 69 18.8672C69 17.4279 68.4391 16.0743 67.4207 15.0559ZM48.5156 64.957C48.5156 65.7001 47.9111 66.3047 47.168 66.3047H4.04297C3.29987 66.3047 2.69531 65.7001 2.69531 64.957V4.04297C2.69531 3.29987 3.29987 2.69531 4.04297 2.69531H47.168C47.9111 2.69531 48.5156 3.29987 48.5156 4.04297V10.7812H45.8203V6.73828C45.8203 5.99397 45.2168 5.39062 44.4727 5.39062H6.73828C5.99397 5.39062 5.39062 5.99397 5.39062 6.73828V51.4805C5.39062 52.2248 5.99397 52.8281 6.73828 52.8281H44.4727C45.2168 52.8281 45.8203 52.2248 45.8203 51.4805V18.8672H48.5156V64.957ZM24.026 10.7812C22.6344 10.7812 21.2761 11.0516 19.9884 11.5849C18.8795 12.0448 17.8719 12.6805 16.9851 13.4766H14.8242C14.0799 13.4766 13.4766 14.0799 13.4766 14.8242C13.4766 15.5685 14.0799 16.1719 14.8242 16.1719H16.9844C18.9224 17.9136 21.4008 18.8672 24.0259 18.8672H43.125V50.1328H8.08594V8.08594H43.125V10.7812H24.026ZM32.3438 16.1719V13.4766H37.7344V16.1719H32.3438ZM24.026 16.1719C22.4338 16.1719 20.9135 15.701 19.6246 14.8253C20.0609 14.5302 20.5272 14.2792 21.0202 14.0748C21.9788 13.6779 22.9901 13.4766 24.026 13.4766H29.6484V16.1719H24.026ZM60.5189 15.7769C60.2642 16.0316 59.926 16.1719 59.5664 16.1719H40.4297V13.4766H59.5664C60.3095 13.4766 60.9141 14.0811 60.9141 14.8242C60.9141 15.1838 60.7738 15.522 60.5189 15.7769Z" fill="#4B4B4B"/>
<path d="M13.4766 22.9102C13.4766 26.6256 16.4994 29.6484 20.2148 29.6484H30.9961C33.2254 29.6484 35.0391 31.4621 35.0391 33.6914C35.0391 34.7706 34.6183 35.7857 33.8542 36.5497C33.0904 37.3136 32.0753 37.7344 30.9961 37.7344H22.9102C20.6809 37.7344 18.8672 39.548 18.8672 41.7773C18.8672 42.5217 19.4705 43.125 20.2148 43.125C20.9592 43.125 21.5625 42.5217 21.5625 41.7773C21.5625 41.0342 22.1671 40.4297 22.9102 40.4297H30.9961C32.7952 40.4297 34.4872 39.7286 35.7602 38.4555C37.0332 37.1825 37.7344 35.4905 37.7344 33.6914C37.7344 29.9759 34.7116 26.9531 30.9961 26.9531H20.2148C17.9856 26.9531 16.1719 25.1394 16.1719 22.9102V20.2148C16.1719 19.4705 15.5685 18.8672 14.8242 18.8672C14.0799 18.8672 13.4766 19.4705 13.4766 20.2148V22.9102Z" fill="#4B4B4B"/>
</g>
<defs>
<clipPath id="clip0_57_330">
<rect width="69" height="69" fill="white"/>
</clipPath>
</defs>
</svg>
