<svg width="76" height="76" viewBox="0 0 76 76" fill="none" xmlns="http://www.w3.org/2000/svg">
<g clip-path="url(#clip0_57_367)">
<path d="M63.1001 8.54811C64.5607 9.29179 65.1411 11.079 64.3974 12.5411L61.0278 19.1541C59.1664 22.8056 54.6969 24.2574 51.0453 22.396L46.2716 31.7639C46.1751 31.7416 46.0771 31.7209 45.9791 31.7016C45.1256 29.8045 43.7244 28.2058 41.9757 27.1178V27.1163L45.755 19.7003C42.1019 17.8404 40.6502 13.3709 42.5116 9.71781L45.8812 3.10486C46.6248 1.64423 48.4135 1.06383 49.8742 1.80751L63.1001 8.54811ZM55.0636 17.7795L57.7592 12.4892L49.8237 8.44569L47.128 13.736L55.0636 17.7795Z" fill="#C5BEE3"/>
<path d="M53.3267 37.4327H19.7024C21.0903 34.5174 23.7963 32.3502 27.0501 31.7015C28.677 28.0855 32.293 25.5576 36.5146 25.5576C38.5214 25.5576 40.3903 26.1291 41.9756 27.1162V27.1177C43.7242 28.2058 45.1255 29.8044 45.979 31.7015C46.077 31.7208 46.1749 31.7416 46.2714 31.7638C49.3946 32.4823 51.9804 34.605 53.3267 37.4327Z" fill="#F6C795"/>
<path d="M53.3267 37.4329H14.2488V43.3704H17.2176L23.1551 74.5158H49.8741L55.8116 43.3704H58.7804V37.4329H53.3267ZM43.9365 61.1831C43.9365 62.8233 42.608 64.1518 40.9677 64.1518H32.0614C30.4212 64.1518 29.0926 62.8233 29.0926 61.1831C29.0926 60.3637 29.4252 59.6215 29.9625 59.0841C30.4998 58.5468 31.242 58.2143 32.0614 58.2143H40.9677C42.608 58.2143 43.9365 59.5443 43.9365 61.1831Z" fill="#F1C872"/>
<path d="M40.9675 58.2141C42.6078 58.2141 43.9363 59.5441 43.9363 61.1829C43.9363 62.8231 42.6078 64.1516 40.9675 64.1516H32.0613C30.421 64.1516 29.0925 62.8231 29.0925 61.1829C29.0925 60.3635 29.425 59.6213 29.9624 59.084C30.4997 58.5466 31.2419 58.2141 32.0613 58.2141H40.9675Z" fill="#446C9E"/>
<path d="M54.4007 24.6887C57.645 24.6885 60.7785 22.9113 62.3504 19.8279L65.7204 13.2139C66.8337 11.025 65.9602 8.33858 63.774 7.22544L50.5476 0.484694C48.3587 -0.629932 45.6719 0.24363 44.5584 2.43087L41.1889 9.04382C40.1088 11.164 39.9185 13.5774 40.6535 15.8401C41.2333 17.6249 42.3342 19.147 43.8138 20.2402L41.3369 25.1003C39.8267 24.4255 38.1859 24.0734 36.5146 24.0734C32.1118 24.0734 28.0735 26.5395 26.0265 30.4169C22.9965 31.2274 20.3841 33.2323 18.8086 35.9485H14.2488C13.4291 35.9485 12.7644 36.613 12.7644 37.4329V41.886H11.28C10.4604 41.886 9.79565 42.5506 9.79565 43.3704C9.79565 50.2721 13.3957 56.2942 18.821 59.708L21.697 74.7938C21.8305 75.4937 22.4425 76.0002 23.1551 76.0002H49.8741C50.5867 76.0002 51.1988 75.4937 51.3322 74.7938L54.2085 59.7074C59.7922 56.1891 63.2334 49.9927 63.2334 43.3704C63.2334 42.5506 62.5687 41.886 61.749 41.886H60.2646V37.4329C60.2646 36.613 59.5999 35.9485 58.7803 35.9485H54.2201C52.8935 33.6667 50.818 31.8738 48.3863 30.883L51.7498 24.2824C52.6223 24.5565 53.5154 24.6888 54.4007 24.6887ZM12.8305 44.8546H15.9894L17.9884 55.3405C15.0903 52.6506 13.2002 48.9844 12.8305 44.8546ZM51.5461 57.8185C49.5691 58.8616 47.3885 59.4858 45.1496 59.6519C44.5239 57.9483 42.8855 56.7297 40.9676 56.7297H32.0613C30.8722 56.7297 29.7541 57.193 28.9128 58.0344C28.447 58.5002 28.0975 59.0512 27.878 59.6517C25.64 59.4855 23.4602 58.8615 21.4828 57.8184L19.0115 44.8546H54.0175L51.5461 57.8185ZM42.4522 61.1829C42.4522 62.0014 41.7863 62.6673 40.9678 62.6673H32.0615C31.243 62.6673 30.5771 62.0014 30.5771 61.1829C30.5771 60.7869 30.7316 60.4141 31.0123 60.1336C31.2928 59.853 31.6654 59.6985 32.0615 59.6985H40.9678C41.7861 59.6985 42.4522 60.3644 42.4522 61.1829ZM48.6459 73.0313H24.3832L22.1622 61.3815C23.9778 62.0792 25.8964 62.5012 27.8498 62.6269C28.451 64.3755 30.1113 65.6361 32.0613 65.6361H40.9676C42.9177 65.6361 44.5779 64.3755 45.1791 62.6269C47.1327 62.5012 49.0513 62.0793 50.8667 61.3817L48.6459 73.0313ZM55.0423 55.3335L57.0397 44.8548H60.1964C59.8265 48.8723 57.9668 52.6086 55.0423 55.3335ZM57.296 41.8859C56.6248 41.8859 16.4622 41.8859 15.7332 41.8859V38.9171H57.296V41.8859ZM50.5642 35.9483H22.4612C23.7346 34.5319 25.4452 33.535 27.3404 33.1572C27.8109 33.0634 28.2069 32.748 28.4038 32.3105C29.8438 29.1101 33.0273 27.042 36.5146 27.042C38.1537 27.042 39.7529 27.4931 41.144 28.3471C41.1596 28.3576 41.1754 28.368 41.1915 28.3779C42.7038 29.3189 43.8913 30.6787 44.6255 32.3104C44.8226 32.7487 45.2199 33.0645 45.6915 33.1577C45.7704 33.1731 45.8492 33.19 45.9281 33.2081C45.9301 33.2086 45.9372 33.2101 45.9388 33.2104C47.7277 33.622 49.3462 34.5975 50.5642 35.9483ZM49.7225 21.722L46.0591 28.9111C45.4368 28.0643 44.7055 27.3043 43.88 26.6485L47.0774 20.3741C47.4493 19.644 47.159 18.7493 46.4282 18.3773C45.015 17.6579 43.9668 16.4309 43.4768 14.9227C42.9868 13.4144 43.1138 11.8052 43.834 10.3916L47.2035 3.77825C47.5746 3.04927 48.4705 2.75833 49.1997 3.12987L62.4262 9.87077C63.1549 10.2417 63.4454 11.1377 63.0744 11.8671L59.705 18.4798C58.2181 21.3964 54.6362 22.5602 51.719 21.0733C50.9898 20.7011 50.0947 20.9915 49.7225 21.722Z" fill="#4B4B4B"/>
<path d="M56.386 18.4532L59.0816 13.1628C59.2603 12.8121 59.2924 12.4048 59.1708 12.0303C59.0492 11.6558 58.7838 11.3451 58.4329 11.1664L50.4975 7.12292C50.1466 6.9442 49.7391 6.91228 49.3649 7.0337C48.9905 7.15542 48.6797 7.42068 48.501 7.77159L45.8054 13.0619C45.6266 13.4127 45.5946 13.8201 45.7161 14.1945C45.8377 14.5688 46.1031 14.8797 46.454 15.0584L54.3895 19.1018C55.1246 19.4763 56.0161 19.1789 56.386 18.4532ZM50.4722 10.442L55.7625 13.1376L54.4147 15.7826L49.1244 13.087L50.4722 10.442Z" fill="#4B4B4B"/>
</g>
<defs>
<clipPath id="clip0_57_367">
<rect width="76" height="76" fill="white"/>
</clipPath>
</defs>
</svg>
