<svg width="76" height="76" viewBox="0 0 76 76" fill="none" xmlns="http://www.w3.org/2000/svg">
<g clip-path="url(#clip0_57_347)">
<path d="M72.4047 21.2593L62.4757 31.5297L65.9388 45.3864L52.0806 41.9248L41.8087 51.8479L37.878 38.1189L24.1445 34.1897L34.075 23.9193L30.6105 10.0626L44.4702 13.5242L54.7421 3.60107L58.6712 17.3301L72.4047 21.2593ZM52.6357 28.8934L55.6847 25.7391L51.469 24.5323L50.2607 20.3137L47.1049 23.3641L42.8507 22.2998L43.915 26.557L40.8646 29.7098L45.0817 30.9167L46.29 35.1353L49.4443 32.0863L53.7 33.1492L52.6357 28.8934Z" fill="#F1C872"/>
<path d="M37.8781 38.119L38.8132 41.3846L30.4325 49.7669L26.2332 45.5676L34.6154 37.1853L37.8781 38.119Z" fill="white"/>
<path d="M30.4323 49.7667L6.55166 73.6458C5.39236 74.8051 3.51314 74.8051 2.35385 73.6458C1.19455 72.4865 1.19455 70.6073 2.35385 69.448L26.233 45.5674L30.4323 49.7667Z" fill="#F1C872"/>
<path d="M57.1184 25.3551C56.9834 24.8514 56.5944 24.4555 56.0931 24.3122L52.6694 23.332L51.6878 19.905C51.5442 19.4041 51.1484 19.0149 50.6449 18.8799C50.1414 18.745 49.6039 18.8842 49.2292 19.2466L46.666 21.7241L43.2111 20.8598C42.7051 20.7332 42.1701 20.8815 41.8014 21.25C41.4327 21.6186 41.2844 22.1539 41.4109 22.6598L42.2752 26.1172L39.7981 28.6776C39.4355 29.0524 39.2961 29.5899 39.4308 30.0936C39.5658 30.5973 39.955 30.9933 40.4564 31.1369L43.8816 32.117L44.8631 35.5438C45.0066 36.045 45.4025 36.4342 45.9058 36.5689C46.0328 36.6029 46.1619 36.6194 46.2899 36.6194C46.67 36.6194 47.0414 36.4733 47.3216 36.2023L49.8837 33.7258L53.3403 34.5889C53.8461 34.7154 54.3813 34.567 54.7497 34.1982C55.1183 33.8295 55.2665 33.2946 55.14 32.7887L54.2756 29.3323L56.752 26.7704C57.1142 26.3961 57.2533 25.8586 57.1184 25.3551Z" fill="white"/>
<path d="M40.9285 7.16656C41.7481 7.16656 42.4128 6.50201 42.4128 5.68219V1.48438C42.4128 0.664555 41.7481 0 40.9285 0C40.1088 0 39.4441 0.664555 39.4441 1.48438V5.68219C39.4441 6.50201 40.1086 7.16656 40.9285 7.16656Z" fill="#4B4B4B"/>
<path d="M22.0354 21.8621H26.2332C27.0529 21.8621 27.7176 21.1975 27.7176 20.3777C27.7176 19.5579 27.0529 18.8933 26.2332 18.8933H22.0354C21.2157 18.8933 20.551 19.5579 20.551 20.3777C20.551 21.1975 21.2156 21.8621 22.0354 21.8621Z" fill="#4B4B4B"/>
<path d="M74.5154 33.5872H70.3176C69.498 33.5872 68.8333 34.2517 68.8333 35.0715C68.8333 35.8914 69.498 36.5559 70.3176 36.5559H74.5154C75.3351 36.5559 75.9998 35.8914 75.9998 35.0715C75.9998 34.2517 75.3353 33.5872 74.5154 33.5872Z" fill="#4B4B4B"/>
<path d="M55.6223 48.2825C54.8026 48.2825 54.1379 48.947 54.1379 49.7668V53.9647C54.1379 54.7845 54.8026 55.449 55.6223 55.449C56.442 55.449 57.1067 54.7845 57.1067 53.9647V49.7668C57.1067 48.947 56.4421 48.2825 55.6223 48.2825Z" fill="#4B4B4B"/>
<path d="M26.2326 7.78265C26.5225 8.0727 26.9025 8.21757 27.2823 8.21757C27.6622 8.21757 28.0419 8.07269 28.3318 7.78295C28.9114 7.20344 28.9116 6.26354 28.3321 5.68374L24.1343 1.48445C23.5546 0.904648 22.615 0.904648 22.0349 1.48415C21.4553 2.06365 21.4551 3.00355 22.0346 3.58335L26.2326 7.78265Z" fill="#4B4B4B"/>
<path d="M70.3159 47.6677C69.7363 47.0881 68.7962 47.0884 68.2167 47.668C67.6372 48.2478 67.6374 49.1877 68.2172 49.7672L72.4165 53.9651C72.7062 54.2548 73.0861 54.3997 73.4658 54.3997C73.8458 54.3997 74.2258 54.2547 74.5155 53.9648C75.095 53.385 75.0949 52.4451 74.5151 51.8656L70.3159 47.6677Z" fill="#4B4B4B"/>
<path d="M64.1156 31.9692L73.472 22.2912C73.8343 21.9164 73.9735 21.3789 73.8386 20.8752C73.7037 20.3716 73.3145 19.9757 72.8132 19.8323L59.8716 16.1298L56.1693 3.19285C56.0257 2.69172 55.63 2.30252 55.1266 2.16759C54.6233 2.03266 54.0858 2.17159 53.7108 2.53378L44.0312 11.8848L30.9701 8.62256C30.4647 8.49654 29.9293 8.64453 29.5607 9.01325C29.1921 9.38197 29.044 9.91694 29.1705 10.4228L32.4351 23.48L23.0774 33.158C22.715 33.5328 22.5758 34.0703 22.7107 34.5741C22.8457 35.0778 23.2349 35.4737 23.7363 35.6171L31.7825 37.919L25.1868 44.5152C25.1858 44.5162 25.1846 44.5171 25.1836 44.5182C25.1825 44.5192 25.1816 44.5204 25.1804 44.5214L1.30418 68.3987C0.463127 69.2398 0 70.358 0 71.5472C0 72.7365 0.463127 73.8547 1.30418 74.6958C2.14523 75.5368 3.26326 76.0001 4.4527 76.0001C5.64213 76.0001 6.76017 75.5368 7.60122 74.6959L31.4805 50.818C31.4809 50.8176 31.4815 50.8171 31.4819 50.8167C31.4824 50.8162 31.4828 50.8156 31.4833 50.8152L38.0799 44.2174L40.3814 52.2567C40.5249 52.7578 40.9207 53.147 41.424 53.2819C41.5511 53.3159 41.6802 53.3326 41.8083 53.3326C42.1883 53.3326 42.5596 53.1866 42.8398 52.9157L52.5195 43.5647L65.5788 46.8268C66.0842 46.953 66.6196 46.805 66.9882 46.4363C67.3568 46.0676 67.5049 45.5326 67.3786 45.0267L64.1156 31.9692ZM5.50201 72.5966C5.22161 72.8768 4.84918 73.0312 4.45285 73.0312C4.05652 73.0312 3.68394 72.8768 3.40369 72.5964C3.12343 72.316 2.96876 71.9436 2.96876 71.5472C2.96876 71.1509 3.12314 70.7783 3.40354 70.4979L26.2333 47.6671L28.3331 49.7669L5.50201 72.5966ZM30.4322 47.6676L28.3325 45.5678L35.0471 38.8529L36.6777 39.3194L37.1454 40.9533L30.4322 47.6676ZM52.4404 40.4848C51.9434 40.3607 51.4175 40.5016 51.0492 40.8574L42.5553 49.0627L39.3049 37.7102C39.1639 37.2177 38.7789 36.8328 38.2863 36.6918L35.0238 35.7581H35.0237L26.9313 33.4432L35.1421 24.9513C35.4982 24.5829 35.6394 24.0567 35.515 23.5594L32.6504 12.1022L44.1105 14.9644C44.607 15.0882 45.1332 14.9478 45.5015 14.5919L53.9953 6.38664L57.2441 17.7387C57.3851 18.2314 57.7703 18.6165 58.2628 18.7575L69.6182 22.0062L61.4084 30.4982C61.0523 30.8666 60.9111 31.3927 61.0355 31.8898L63.8989 43.347L52.4404 40.4848Z" fill="#4B4B4B"/>
</g>
<defs>
<clipPath id="clip0_57_347">
<rect width="76" height="76" fill="white"/>
</clipPath>
</defs>
</svg>
